<svg xmlns="http://www.w3.org/2000/svg" id="Layer_1" x="0" y="0" enable-background="new 0 0 20 20" version="1.1" viewBox="0 0 20 20" xml:space="preserve"><path id="XMLID_345_" fill="none" stroke="#000" stroke-miterlimit="10" d="M6.9,10L2.1,5.3c-0.2-0.2-0.2-0.5,0-0.7l2.4-2.4C4.7,2,5,2,5.2,2.2l4.7,4.7"/><path id="XMLID_342_" fill="none" stroke="#000" stroke-miterlimit="10" d="M13,10l4.8,4.8c0.2,0.2,0.2,0.5,0,0.7l-2.4,2.4c-0.2,0.2-0.5,0.2-0.7,0L10,13.1"/><rect id="XMLID_380_" width="1.4" height="2.9" x="13.8" y="14.2" transform="rotate(-134.999 14.563 15.678)"/><rect id="XMLID_378_" width="1.4" height="1.5" x="11.3" y="13.4" transform="rotate(-134.999 12.015 14.136)"/><rect id="XMLID_375_" width="1.4" height="2.9" x="5.7" y="6.1" transform="rotate(-134.999 6.382 7.497)"/><rect id="XMLID_374_" width="1.4" height="1.5" x="3.1" y="5.2" transform="rotate(-134.999 3.834 5.956)"/><path id="XMLID_341_" fill="none" stroke="#000" stroke-linecap="round" stroke-linejoin="round" stroke-miterlimit="10" d="M14,2.9l0.6-0.6c0.4-0.4,1-0.4,1.4,0l1.7,1.7c0.4,0.4,0.4,1,0,1.4L17.1,6"/><rect id="XMLID_371_" width="4.3" height="13.5" x="7.8" y="3.3" fill="none" stroke="#000" stroke-linecap="round" stroke-linejoin="round" stroke-miterlimit="10" transform="rotate(45.001 9.921 10.082)"/><rect id="XMLID_370_" width="13.8" height="1.4" x="2.9" y="9.4" transform="rotate(-45.001 9.867 10.137)"/><polygon id="XMLID_369_" fill="none" stroke="#000" stroke-linecap="round" stroke-linejoin="round" stroke-miterlimit="10" points="2.1 17.9 3.6 13.3 6.7 16.4"/><polygon id="XMLID_368_" points="2.6 16.4 2.1 17.9 3.6 17.4"/><polyline id="XMLID_340_" fill="none" stroke="#000" stroke-linecap="round" stroke-linejoin="round" stroke-miterlimit="10" points="17.3 5.8 16.1 6.9 13.1 3.9 14.2 2.7"/></svg>