<svg id="Layer_1" data-name="Layer 1" xmlns="http://www.w3.org/2000/svg" viewBox="0 0 980 980"><defs><style>.cls-1{fill:#2d3038;}.cls-2{fill:#0acf83;}.cls-3{fill:#a259ff;}.cls-4{fill:#f24e1e;}.cls-5{fill:#ff7262;}.cls-6{fill:#1abcfe;}</style></defs><rect class="cls-1" width="980" height="980" rx="193.18"/><path id="path0_fill" data-name="path0 fill" class="cls-2" d="M499.66,781.71v-140h-140c-77,0-140.3,61.43-141.61,138.37A140.87,140.87,0,0,0,361.29,923.31C438.23,922,499.66,858.66,499.66,781.71Z" transform="translate(-10 -11)"/><path id="path1_fill" data-name="path1 fill" class="cls-3" d="M359.71,360.13h140V641.68H358.88A140.83,140.83,0,0,1,218.12,502C217.51,423.71,281.4,360.13,359.71,360.13Z" transform="translate(-10 -11)"/><path id="path1_fill-2" data-name="path1 fill" class="cls-4" d="M359.71,78.59h140V360.13H358.88A140.82,140.82,0,0,1,218.12,220.48C217.51,142.17,281.4,78.59,359.71,78.59Z" transform="translate(-10 -11)"/><path id="path2_fill" data-name="path2 fill" class="cls-5" d="M499.66,78.59H639.6c78.32,0,142.21,63.58,141.6,141.89A140.83,140.83,0,0,1,640.43,360.13H499.66Z" transform="translate(-10 -11)"/><path id="path3_fill" data-name="path3 fill" class="cls-6" d="M781.3,501A140.83,140.83,0,1,1,640.47,360.18,140.88,140.88,0,0,1,781.3,501Z" transform="translate(-10 -11)"/></svg>