<svg xmlns="http://www.w3.org/2000/svg" viewBox="0 0 48 48"><path d="M41,10H34V7a3,3,0,0,0-3-3H17a3,3,0,0,0-3,3v3H7a5,5,0,0,0-5,5V27a1,1,0,0,0,1,1H4V39a5,5,0,0,0,5,5H39a5,5,0,0,0,5-5V28h1a1,1,0,0,0,1-1V15A5,5,0,0,0,41,10ZM16,7a1,1,0,0,1,1-1H31a1,1,0,0,1,1,1v3H16ZM44,26H31v2H42V39a3,3,0,0,1-3,3H9a3,3,0,0,1-3-3V28H17V26H4V15a3,3,0,0,1,3-3H41a3,3,0,0,1,3,3ZM26,21H22a3,3,0,0,0-3,3v6a3,3,0,0,0,3,3h4a3,3,0,0,0,3-3V24A3,3,0,0,0,26,21Zm1,9a1,1,0,0,1-1,1H22a1,1,0,0,1-1-1V24a1,1,0,0,1,1-1h4a1,1,0,0,1,1,1Zm-4-4h2v2H23Z" data-name="63 Suitcase, Bag, Briefcase, Portfolio, Travel"/></svg>