<svg xmlns="http://www.w3.org/2000/svg" data-name="Layer 15" viewBox="0 0 48 48"><path d="M43,2H5A3,3,0,0,0,2,5V43a3,3,0,0,0,3,3H43a3,3,0,0,0,3-3V5A3,3,0,0,0,43,2ZM5,4H43a1,1,0,0,1,1,1V8H4V5A1,1,0,0,1,5,4ZM43,44H5a1,1,0,0,1-1-1V10H44V43A1,1,0,0,1,43,44Z"/><rect width="2" height="2" x="6" y="5"/><rect width="2" height="2" x="10" y="5"/><rect width="2" height="2" x="14" y="5"/><path d="M15 26H9a1 1 0 0 0-1 1v6a1 1 0 0 0 1 1h6a1 1 0 0 0 1-1V27A1 1 0 0 0 15 26zm-1 6H10V28h4v4zM27 26H21a1 1 0 0 0-1 1v6a1 1 0 0 0 1 1h6a1 1 0 0 0 1-1V27A1 1 0 0 0 27 26zm-1 6H22V28h4v4zM39 26H33a1 1 0 0 0-1 1v6a1 1 0 0 0 1 1h6a1 1 0 0 0 1-1V27A1 1 0 0 0 39 26zm-1 6H34V28h4v4zM39 13H9a1 1 0 0 0-1 1v8a1 1 0 0 0 1 1H39a1 1 0 0 0 1-1V14A1 1 0 0 0 39 13zm-1 8H10V15H38v6z"/><rect width="8" height="2" x="8" y="36"/><rect width="8" height="2" x="8" y="39"/><rect width="8" height="2" x="20" y="36"/><rect width="8" height="2" x="20" y="39"/><rect width="8" height="2" x="32" y="36"/><rect width="8" height="2" x="32" y="39"/></svg>