<svg xmlns="http://www.w3.org/2000/svg" data-name="Layer 1" viewBox="0 0 64 64"><path d="M59,12H5a1,1,0,0,0-1,1V51a1,1,0,0,0,1,1H59a1,1,0,0,0,1-1V13A1,1,0,0,0,59,12ZM58,50H6V20H58Zm0-32H6V14H58Z"/><circle cx="9" cy="16" r="1"/><circle cx="12" cy="16" r="1"/><circle cx="15" cy="16" r="1"/><path d="M9,48H19a1,1,0,0,0,1-1V39a1,1,0,0,0-1-1H15V36H31v2H27a1,1,0,0,0-1,1v8a1,1,0,0,0,1,1H37a1,1,0,0,0,1-1V39a1,1,0,0,0-1-1H33V36H49v2H45a1,1,0,0,0-1,1v8a1,1,0,0,0,1,1H55a1,1,0,0,0,1-1V39a1,1,0,0,0-1-1H51V35a1,1,0,0,0-1-1H33V32h4a1,1,0,0,0,1-1V23a1,1,0,0,0-1-1H27a1,1,0,0,0-1,1v8a1,1,0,0,0,1,1h4v2H14a1,1,0,0,0-1,1v3H9a1,1,0,0,0-1,1v8A1,1,0,0,0,9,48Zm45-8v6H46V40ZM28,30V24h8v6Zm8,10v6H28V40ZM10,40h8v6H10Z"/></svg>