<svg xmlns="http://www.w3.org/2000/svg" data-name="Layer 1" viewBox="0 0 128 128"><path d="M59.978 19.112c1.43158 1.9248 2.78308 3.74268 2.996 5.95215.332 3.43457-2.38464 6.66992-3.22546 7.57959a1.99991 1.99991 0 1 0 2.93738 2.71484c1.4433-1.56152 4.74786-5.72852 4.27039-10.6792-.32129-3.31738-2.15228-5.78125-3.76843-7.95459-.29883-.40137-.59375-.79688-.872-1.19141A8.05469 8.05469 0 0 1 61.184 9.27948a8.59586 8.59586 0 0 1 3.47937-5.59473A2.00025 2.00025 0 0 0 62.50323.31757a12.65566 12.65566 0 0 0-5.24487 8.19482 12.00125 12.00125 0 0 0 1.79 9.32813C59.34619 18.26141 59.65961 18.68378 59.978 19.112zM47.97845 19.112c1.43158 1.9248 2.78308 3.74268 2.996 5.95215.332 3.43457-2.38464 6.66992-3.22546 7.57959a1.99944 1.99944 0 0 0 .11133 2.82617 2.02236 2.02236 0 0 0 2.826-.11133c1.4433-1.56152 4.74786-5.72852 4.27032-10.6792-.32123-3.31738-2.15222-5.78125-3.76837-7.95459-.29883-.40137-.59375-.79688-.872-1.19141a8.05469 8.05469 0 0 1-1.13184-6.25391 8.59586 8.59586 0 0 1 3.47937-5.59473A2.00025 2.00025 0 0 0 50.50372.31757a12.65566 12.65566 0 0 0-5.24487 8.19482 12.00125 12.00125 0 0 0 1.79 9.32813C47.34668 18.26141 47.6601 18.68378 47.97845 19.112zM71.97748 19.112c1.43158 1.9248 2.78308 3.74268 2.996 5.95215.332 3.43457-2.38464 6.66992-3.22546 7.57959a1.99942 1.99942 0 0 0 .11127 2.82611 2.03721 2.03721 0 0 0 2.82611-.11127c1.4433-1.56152 4.74786-5.72852 4.27039-10.6792-.32129-3.31738-2.15228-5.78125-3.76843-7.95459-.29883-.40137-.59375-.79688-.872-1.19141a8.05469 8.05469 0 0 1-1.13184-6.25391 8.59586 8.59586 0 0 1 3.47937-5.59473 2.00023 2.00023 0 0 0-2.16-3.36719 12.65573 12.65573 0 0 0-5.24493 8.19482 12.00125 12.00125 0 0 0 1.79 9.32813C71.3457 18.26141 71.65912 18.68378 71.97748 19.112zM9.897 118.06592C12.02 120.396 19.28918 128 23.68646 128h76.63165c4.39728 0 11.66657-7.604 13.78949-9.93408a2.00557 2.00557 0 0 0 .31641-.46484 5.68844 5.68844 0 0 0-.25684-5.47607A4.26587 4.26587 0 0 0 110.52771 110H90.64948l2.07916-4H33.27576l2.079 4H13.47693a4.266 4.266 0 0 0-3.63953 2.125 5.68844 5.68844 0 0 0-.25677 5.47607A2.00343 2.00343 0 0 0 9.897 118.06592zM13.47693 114h97.05078c.03809 0 .1416.07617.24408.23975a1.73713 1.73713 0 0 1 .14844 1.3833c-3.77814 4.09277-8.86292 8.377-10.60211 8.377H23.68646c-1.7392 0-6.82391-4.28418-10.60211-8.377C12.993 115.33844 12.93951 114 13.47693 114zM31.2 102H94.81l3.71-7.14A57.81573 57.81573 0 0 0 105 68.31V64h8.03A2.137 2.137 0 0 1 115 66.27V75.8a3.75009 3.75009 0 0 1-1.05 2.65l-4.33 4.1a2.00174 2.00174 0 0 0 2.76 2.9l4.35-4.13A7.7986 7.7986 0 0 0 119 75.8V66.27A6.13193 6.13193 0 0 0 113.03 60H105V56H75a2 2 0 0 1 0-4h30V47.8A7.78024 7.78024 0 0 0 97.25 40H28.75A7.78668 7.78668 0 0 0 21 47.8V68.31a57.94107 57.94107 0 0 0 6.48 26.55zM35 59.5a2.00587 2.00587 0 0 1 2-2 1.95522 1.95522 0 0 1 1.41.59 1.40982 1.40982 0 0 1 .25.29A1.97336 1.97336 0 0 1 39 59.5v14c0 .96.12 2.81.27 4.11q.045.345.09.63a3.35375 3.35375 0 0 0 .13.63l2.83 6.31a3.31888 3.31888 0 0 1 .14.41 1.99912 1.99912 0 0 1-3.78 1.23l-2.86-6.37c-.72-1.69-.82-6.9-.82-6.95z"/></svg>