<svg xmlns="http://www.w3.org/2000/svg" enable-background="new 0 0 512 512" viewBox="0 0 512 512"><path d="M502.381 245.116l-71.73 71.731c-12.687 12.791-33.601 12.844-46.34 0l-21.002-20.95c-12.747-12.8-12.747-33.593 0-46.34l1.097-1.097c-14.461-1.364-34.314 4.881-50.311-11.233l-45.557-45.504c-9.508-9.508-13.27-23.039-10.083-36.152 4.754-19.748 3.292-27.271 2.717-29.099-17.686-57.647-59.503-50.083-87.037-50.624-10.919 0-20.166-7.158-23.039-17.763-2.769-10.448 1.567-21.054 10.815-26.383C226.588-5.756 308.662 5.059 361.533 57.929l61.176 61.176c21.231 21.231 14.842 46.704 15.987 55.587 12.8-9.56 31.085-8.516 42.735 3.082l20.95 21.002C515.218 211.506 515.194 232.411 502.381 245.116zM306.626 258.23c-45.969 48.255-78.452 71.22-109.136 123.347-14.419 24.502-31.972 47.124-52.086 67.237l-41.691 41.743c-15.831 15.831-41.514 15.954-57.467 0l-34.324-34.324c-15.866-15.866-15.924-41.545 0-57.467l41.847-41.847c20.01-20.01 42.526-37.459 66.924-51.878 52.269-30.796 73.568-61.686 124.13-109.868 2.508 4.075 5.485 7.889 8.934 11.337l45.504 45.452C301.558 254.259 304.013 256.349 306.626 258.23z"/></svg>