<svg xmlns="http://www.w3.org/2000/svg" data-name="Layer 1" viewBox="0 0 24 24"><path d="M23.78,5.51a5.42,5.42,0,1,0-10.43,2.8l-1.62,3-.24.42h0L7.72,18.58a1.6,1.6,0,0,0,.5,2.13l.13.08-.65.49-.18.13c-.54.4-.9.64-1.38.57a1.32,1.32,0,0,1-1-.94,9.3,9.3,0,0,1-.36-3V18A2.32,2.32,0,0,0,4,16.13a2.58,2.58,0,0,0-2.14-.27,4.13,4.13,0,0,1-.75.09c0-.07-.15-.52.84-2.73a.5.5,0,1,0-.91-.41C.11,15-.08,16,.36,16.55s1.1.4,1.71.3,1.06-.18,1.34.05A1.56,1.56,0,0,1,3.74,18v.12a10,10,0,0,0,.42,3.29A2.27,2.27,0,0,0,6,23l.3,0a3,3,0,0,0,1.81-.78l.17-.13c.32-.23.62-.47.93-.71l0,0A1.62,1.62,0,0,0,11.4,21l4.9-6.14.32-.39,2.1-2.63a5.44,5.44,0,0,0,4.14-2.21A5.5,5.5,0,0,0,23.78,5.51ZM10.61,20.43a.58.58,0,0,1-.8.13l-1-.69a.6.6,0,0,1-.18-.8l3.56-6.5a11.1,11.1,0,0,0,1.46,1.16,11.9,11.9,0,0,0,1.64.9Zm5.29-6.61a10,10,0,0,1-1.73-.92,9.69,9.69,0,0,1-1.51-1.24L14,9.26a7.93,7.93,0,0,0,3.63,2.43Zm6.26-4.9a1.62,1.62,0,0,1-.11.17,4.45,4.45,0,0,1-3.52,1.81,6.86,6.86,0,0,1-4.19-2.79s0,0,0,0A4.45,4.45,0,0,1,14.76,4h0a9,9,0,0,0,3.12,3.34,9,9,0,0,0,4.28,1.59Zm.47-1h0a7.46,7.46,0,0,1-4.19-1.44A7.46,7.46,0,0,1,15.5,3.15h0a4.45,4.45,0,0,1,5.43-.39,4.39,4.39,0,0,1,1.86,2.94A4.49,4.49,0,0,1,22.63,7.94Z"/></svg>