<svg xmlns="http://www.w3.org/2000/svg" width="128" height="128" data-name="Layer 1" viewBox="0 0 128 128"><path d="M4.00061 30V70a6.00656 6.00656 0 0 0 6 6H36.00049v4h-4a2 2 0 0 0 0 4H58.00037a2 2 0 1 0 0-4h-4V76H80.00024a6.00651 6.00651 0 0 0 5.99994-6V30a6.00651 6.00651 0 0 0-5.99994-6H10.00061A6.00656 6.00656 0 0 0 4.00061 30zM50.00043 80H40.00049V76h9.99994zM82.00024 30V70a2.00229 2.00229 0 0 1-2 2H10.00061a2.00229 2.00229 0 0 1-2-2V30a2.00229 2.00229 0 0 1 2-2H80.00024A2.00229 2.00229 0 0 1 82.00024 30zM122 24H98.00012a6.00655 6.00655 0 0 0-5.99994 6V94a6.00655 6.00655 0 0 0 5.99994 6H122a6.00656 6.00656 0 0 0 6-6V30A6.00656 6.00656 0 0 0 122 24zm2 70a2.00229 2.00229 0 0 1-2 2H98.00012a2.00228 2.00228 0 0 1-1.99994-2V68H124zm0-30H96.00018V60H124zm0-8H96.00018V30a2.00228 2.00228 0 0 1 1.99994-2H122a2.00229 2.00229 0 0 1 2 2z"/><path d="M117.00006 36H103.00012a2 2 0 0 0 0 4h13.99994a2 2 0 1 0 0-4zM117.00006 44H103.00012a2 2 0 0 0 0 4h13.99994a2 2 0 1 0 0-4zM106.00012 88h7.99994a2.0001 2.0001 0 0 0 2-2V78a2.0001 2.0001 0 0 0-2-2h-7.99994a2.0001 2.0001 0 0 0-2 2v8A2.0001 2.0001 0 0 0 106.00012 88zm2-8h3.99994v4h-3.99994zM.5827 102.05957A4.04121 4.04121 0 0 0 4.0636 104H85.93726a4.04121 4.04121 0 0 0 3.4809-1.94043 3.9265 3.9265 0 0 0 .13965-3.87012l-4.121-8A4.04839 4.04839 0 0 0 81.81616 88H8.18469a4.04839 4.04839 0 0 0-3.62061 2.18945l-4.121 8A3.9265 3.9265 0 0 0 .5827 102.05957zM8.18469 92l73.69641.02148 4.1225 7.9541C85.99243 100 85.95239 100 85.93726 100l-81.9386.02148zM50.65717 47.17188a2.00011 2.00011 0 0 0 2.829-2.82812l-2.82855-2.8291a2.00013 2.00013 0 0 0-2.8291 2.82813zM39.34326 58.48535a2.00011 2.00011 0 0 0 2.829-2.82812l-2.82855-2.8291a2.00013 2.00013 0 0 0-2.8291 2.82813zM47.829 55.65625a1.99979 1.99979 0 0 0 2.82813-2.82812l-8.48535-8.48437a1.99976 1.99976 0 0 0-2.82806 2.82813z"/></svg>