<svg id="Layer_1" data-name="Layer 1" xmlns="http://www.w3.org/2000/svg" viewBox="0 0 980 980"><defs><style>.cls-1{fill:#fff;}.cls-2{fill:#fbbd71;}</style></defs><rect class="cls-1" width="980" height="980" rx="163.57"/><path class="cls-2" d="M558.33,319.65c-15.65,7.83-22.43,22.44-22.43,62.09a62.13,62.13,0,0,1,20.34-12.52A83.25,83.25,0,0,0,576.59,358c13.56-10.17,15.65-22.43,15.65-43.82C592,314.18,570.59,312.87,558.33,319.65Z" transform="translate(-10 -10)"/><path d="M462.59,328.78C449,340,445.64,359.31,445.64,359.31l-43.83,168-36-137.47c-3.4-14.61-10.18-32.61-20.35-45.13-12.52-15.92-38.61-17-41.74-17-2.35,0-28.17,1-41.74,17-10.17,12.52-17,30.52-20.34,45.13L207.73,527.3l-43.82-168s-3.39-18-17-30.53C125.56,309.48,94,314.18,94,314.18l83.48,314.33s27.12,2.35,40.69-4.43c18-9.13,27.13-15.65,37.3-58.7,10.18-38.34,37.3-150,39.39-157.82C295.91,404.17,298.25,394,305,394s9.13,9.13,10.17,13.56c2.35,7.83,29.22,119.48,39.39,157.82,11.22,42.79,19,49.57,37.3,58.7,13.57,6.78,40.7,4.43,40.7,4.43l82.95-314.33S484,309.74,462.59,328.78Z" transform="translate(-10 -10)"/><path d="M591.53,362.33a64,64,0,0,1-17.27,14.88c-8,4.51-14.88,6.91-22.85,11.42-13.82,6.91-17.27,13.82-17.27,24.18v20.72h0V629.88s21.79,2.39,35.6-4.52c18.34-9.3,21.79-18.33,21.79-57.39V375.08h0V362.33Z" transform="translate(-10 -10)"/><path d="M799.36,472,905.27,315.22s-43.82-7.83-66.52,12.52c-14.6,12.52-29.21,36-29.21,36l-38.35,56.35c-2.35,3.39-4.43,5.73-7.82,5.73s-6.79-3.39-7.83-5.73l-38.35-56.35s-15.65-22.43-29.21-36c-22.44-20.35-66.52-12.52-66.52-12.52L724,471.74,619.11,628.25S665.28,634,688,613.64c14.6-12.52,28.17-33.91,28.17-33.91l38.35-56.34c2.34-3.4,4.43-5.74,7.82-5.74s6.78,3.39,7.83,5.74l38.34,56.34s14.61,21.39,28.18,33.91c22.43,20.35,67.56,14.61,67.56,14.61Z" transform="translate(-10 -10)"/></svg>